<svg version="1.1" id="Layer_1" xmlns="http://www.w3.org/2000/svg" xmlns:xlink="http://www.w3.org/1999/xlink" x="0px" y="0px" width="32px" height="32px" viewBox="0 0 32 32" enable-background="new 0 0 32 32" xml:space="preserve">
  <g id="icon">
    <path d="M25.9015,6.0984c-5.4646,-5.4646,-14.3245,-5.4646,-19.7891,0c-5.4646,5.4646,-5.4646,14.3245,0,19.7891c5.4646,5.4646,14.3245,5.4646,19.7891,0C31.3662,20.4229,31.3662,11.5631,25.9015,6.0984zM23.0177,23.2625c-3.9432,3.9432,-10.1901,3.4364,-13.9529,-0.3264C5.302,19.1733,4.7948,12.926,8.738,8.9828c3.9432,-3.9432,10.3365,-3.9432,14.2797,0C26.961,12.926,26.961,19.3193,23.0177,23.2625z" fill-rule="evenodd" fill="#8e8e91"/>
    <path d="M6.1654,22.8034L22.2436,6.7252L25.2684,9.75L9.1902,25.8282L6.1654,22.8034z" fill-rule="evenodd" fill="#8e8e91"/>
  </g>
</svg>