<svg version="1.1" id="Layer_1" xmlns="http://www.w3.org/2000/svg" xmlns:xlink="http://www.w3.org/1999/xlink" x="0px" y="0px" width="32px" height="32px" viewBox="0 0 32 32" enable-background="new 0 0 32 32" xml:space="preserve">
  <g id="icon">
    <path d="M4.3048,13c-0.2625,0,-0.4566,-0.2493,-0.3867,-0.5024c0.512,-1.8553,1.476,-3.6062,2.8948,-5.0649c2.2514,-2.315,5.2818,-3.5898,8.5331,-3.5898c2.7173,0,5.6034,1.2003,7.8546,2.9796l0.421,0.3327V1.9888c0,-0.3564,0.4309,-0.5348,0.6828,-0.2828l2.5785,2.5785c0.075,0.075,0.1172,0.1768,0.1172,0.2828V12.6c0,0.2209,-0.1791,0.4,-0.4,0.4h-8.0695c-0.105,0,-0.2057,-0.0413,-0.2805,-0.1149l-2.6192,-2.5769c-0.2555,-0.2514,-0.0769,-0.6861,0.2816,-0.6851l4.4876,0.0119l-1.0687,-0.7371c-0.0093,-0.0064,-0.0188,-0.0125,-0.0285,-0.0182c-1.2177,-0.7172,-2.613,-1.0962,-4.0363,-1.0962c-2.1752,0,-4.2118,0.879,-5.7345,2.475c-0.7115,0.7458,-1.2489,1.5945,-1.6155,2.4956c-0.0608,0.1494,-0.2073,0.2458,-0.3686,0.2458H4.3048zM26.6952,19c0.2625,0,0.4566,0.2493,0.3867,0.5024c-0.512,1.8553,-1.476,3.6062,-2.8948,5.0649c-2.2514,2.315,-5.2818,3.5898,-8.5331,3.5898c-2.7173,0,-5.6034,-1.2003,-7.8546,-2.9796l-0.421,-0.3327v5.1664c0,0.3564,-0.4309,0.5348,-0.6828,0.2828l-2.5785,-2.5785c-0.075,-0.075,-0.1172,-0.1768,-0.1172,-0.2828V19.4c0,-0.2209,0.1791,-0.4,0.4,-0.4h8.0695c0.105,0,0.2057,0.0413,0.2805,0.1149l2.6192,2.5769c0.2555,0.2514,0.0769,0.6861,-0.2816,0.6851l-4.4876,-0.0119l1.0687,0.7371c0.0093,0.0064,0.0188,0.0125,0.0285,0.0182c1.2177,0.7172,2.613,1.0962,4.0363,1.0962c2.1752,0,4.2118,-0.879,5.7345,-2.475c0.7115,-0.7458,1.2489,-1.5945,1.6155,-2.4956c0.0608,-0.1494,0.2073,-0.2458,0.3686,-0.2458H26.6952z" fill="#4EA17E"/>
  </g>
</svg>