<svg version="1.1" id="Layer_1" xmlns="http://www.w3.org/2000/svg" xmlns:xlink="http://www.w3.org/1999/xlink" x="0px" y="0px" width="32px" height="32px" viewBox="0 0 32 32" enable-background="new 0 0 32 32" xml:space="preserve">
  <g id="icon">
    <path d="M26.8295,16.1944c0.1099,-0.1164,0.1709,-0.2706,0.1705,-0.4308l-0.0171,-6.0965c-0.0007,-0.2533,-0.3069,-0.3798,-0.4862,-0.2008l-7.496,7.485V2.625c0,-0.3452,-0.2798,-0.625,-0.625,-0.625h-1.3658h-1.2241h-1.1601c-0.3452,0,-0.625,0.2798,-0.625,0.625v14.3263L6.4862,9.4948c-0.1798,-0.1784,-0.4855,-0.0511,-0.4855,0.2022v6.0643c0,0.1615,0.0625,0.3167,0.1744,0.4331c0,0,8.2666,8.6716,10.0741,10.5588c0.1885,0.1968,0.5028,0.1955,0.6895,-0.0031C18.7198,24.8567,26.8295,16.1944,26.8295,16.1944z" fill-rule="evenodd" fill="#4EA17E"/>
    <path d="M27.25,30h-21.5c-0.4142,0,-0.75,-0.3358,-0.75,-0.75v-1.5c0,-0.4142,0.3358,-0.75,0.75,-0.75h21.5c0.4142,0,0.75,0.3358,0.75,0.75v1.5C28,29.6642,27.6642,30,27.25,30z" fill-rule="evenodd" fill="#4EA17E"/>
  </g>
</svg>