<svg version="1.1" id="Layer_1" xmlns="http://www.w3.org/2000/svg" xmlns:xlink="http://www.w3.org/1999/xlink" x="0px" y="0px" width="32px" height="32px" viewBox="0 0 32 32" enable-background="new 0 0 32 32" xml:space="preserve">
  <g id="icon">
    <path d="M23,24h-7v-2h7V24zM27,20h-9v-2h9V20zM24,16h-7v-2h7V16zM19,12h-5v-2h5V12z" fill="#fff" opacity="0.5"/>
    <path d="M32,21.054c0,3.194,-1.346,4.904,-2.474,5.776c-1.257,0.971,-2.559,1.17,-2.838,1.17h-9.429l-1.118,-2h10.5c0.137,-0.021,0.963,-0.172,1.761,-0.831c1.061,-0.876,1.599,-2.259,1.599,-4.108c-0.009,-1.367,-1.208,-3.693,-2.368,-5.943c-1.439,-2.793,-2.341,-4.931,-2.756,-6.538l1.936,-0.501c0.378,1.461,1.227,3.463,2.597,6.122C30.736,16.774,31.988,19.203,32,21.054zM6.213,9.177c-0.32,-0.998,-0.522,-2.019,-0.522,-3.009c0,-1.838,0.648,-3.402,1.873,-4.523C8.74,0.569,10.341,0,12.193,0v0.007C12.349,0,12.5,0,12.636,0h13.881c3.736,0,5.184,3.658,5.426,5.145c0.123,0.756,-0.286,1.477,-0.995,1.754l0,0c-0.171,0.067,-0.358,0.1,-0.556,0.1H15.003c-0.736,0,-1.379,-0.527,-1.534,-1.256c-0.026,-0.105,-0.487,-1.707,-1.916,-2.97c-0.211,-0.186,-0.453,-0.401,-0.645,-0.646c-2.014,0.426,-3.217,1.894,-3.217,4.04c0,0.827,0.2,1.788,0.579,2.837C8.177,9.002,8.084,9,7.99,9C7.382,9,6.788,9.061,6.213,9.177zM13.593,2c1.074,1.243,1.565,2.394,1.745,3h14.515c-0.287,-0.988,-1.173,-3,-3.337,-3H13.593z" fill="#fff"/>
    <path d="M9.307,31.894l-1.319,-4.707l-1.319,4.707l-2.656,-2.595l-3.705,-0.044l3.261,-5.831C2.002,22.139,1,20.186,1,18.003C1,14.142,4.136,11,7.99,11c3.854,0,6.99,3.142,6.99,7.003c0,2.184,-1.003,4.137,-2.571,5.423l3.26,5.829l-3.705,0.044L9.307,31.894zM3.696,27.295l1.143,0.013l0.816,0.797l0.91,-3.246c-0.444,-0.093,-0.873,-0.228,-1.282,-0.401L3.696,27.295zM9.413,24.861l0.909,3.245l0.816,-0.797l1.143,-0.013l-1.585,-2.834C10.287,24.633,9.858,24.768,9.413,24.861zM7.99,13C5.238,13,3,15.244,3,18.003s2.238,5.003,4.99,5.003s4.99,-2.245,4.99,-5.003S10.742,13,7.99,13z" fill="#fff"/>
  </g>
</svg>