<svg version="1.1" id="Layer_1" xmlns="http://www.w3.org/2000/svg" xmlns:xlink="http://www.w3.org/1999/xlink" x="0px" y="0px" width="32px" height="32px" viewBox="0 0 32 32" enable-background="new 0 0 32 32" xml:space="preserve">
  <g id="icon" style="opacity:0.1">
    <path d="M28.7495,10.4H3.2505C2.864,10.6968,2.5,11.1728,2.5,11.6797v16.2417C2.5,28.7932,3.2999,29.5,4.12,29.5h23.76c0.8201,0,1.62,-0.7068,1.62,-1.5786V11.6797C29.5,11.1728,29.136,10.6968,28.7495,10.4z" fill="#FFFFFF"/>
    <path d="M11.4125,17H5.575c-0.3162,0,-0.575,0.2587,-0.575,0.575V29.9h7V17.5875C12,17.2644,11.7356,17,11.4125,17z" fill="#217346"/>
    <path d="M26.575,26h-11.15c-0.2347,0,-0.425,-0.1903,-0.425,-0.425v-8.15c0,-0.2347,0.1903,-0.425,0.425,-0.425h11.15c0.2347,0,0.425,0.1903,0.425,0.425v8.15C27,25.8097,26.8097,26,26.575,26z" fill="#eab765"/>
    <path d="M29,14.6886v13.2328c0,0.6174,-0.5913,1.0786,-1.12,1.0786H4.12c-0.5287,0,-1.12,-0.4612,-1.12,-1.0786V14.6872c-0.3737,-0.1394,-0.7126,-0.3527,-1,-0.6215v13.8556C2,29.0287,2.9907,30,4.12,30h23.76c1.1294,0,2.12,-0.9713,2.12,-2.0786V14.069C29.7125,14.3371,29.3736,14.5497,29,14.6886z" fill="#797979"/>
    <path d="M24.9807,9.3356v1.8139c0,1.6628,-1.3468,3.0232,-2.993,3.0232c-1.6461,0,-2.993,-1.3605,-2.993,-3.0232V9.3961l-1.4965,-7.3627h2.993l4.4499,7.3023H24.9807zM7.0622,9.3356h-0.0396v1.8139c0,1.6628,1.3469,3.0232,2.993,3.0232s2.993,-1.3605,2.993,-3.0232V9.3961l1.4965,-7.3627h-2.993L7.0622,9.3356z" fill="#D1D3D4"/>
    <path d="M30.9667,9.3356v1.8139c0,1.6628,-1.3469,3.0232,-2.993,3.0232c-1.6462,0,-2.993,-1.3605,-2.993,-3.0232V9.3961l-4.4895,-7.3627h2.993l7.4166,7.3023H30.9667zM1.1026,9.3356h-0.0659v1.8139c0,1.6628,1.3469,3.0232,2.993,3.0232c1.6461,0,2.993,-1.3605,2.993,-3.0232V9.3961l4.4895,-7.3627h-2.993L1.1026,9.3356zM17.4982,2.0333h-2.993l-1.4833,7.3023h-0.0132v1.8139c0,1.6628,1.3469,3.0232,2.993,3.0232s2.993,-1.3605,2.993,-3.0232V9.3356h-0.0132L17.4982,2.0333z" fill="#217346"/>
  </g>
</svg>